HIERARCHY
ROOT root
{
	OFFSET 0.000000 0.000000 0.000000
	CHANNELS 6 Xposition Yposition Zposition Xrotation Yrotation Zrotation
	JOINT lhipjoint
	{
		OFFSET 1.402518 -1.714242 0.591231
		CHANNELS 3 Xrotation Yrotation Zrotation
		JOINT lfemur
		{
			OFFSET 2.500710 -6.870650 0.000000
			CHANNELS 3 Xrotation Yrotation Zrotation
			JOINT ltibia
			{
				OFFSET 2.508344 -6.891624 0.000000
				CHANNELS 3 Xrotation Yrotation Zrotation
				JOINT lfoot
				{
					OFFSET 0.215284 -0.591487 1.644481
					CHANNELS 3 Xrotation Yrotation Zrotation
					JOINT ltoes
					{
						OFFSET 0.000000 -0.000000 0.879206
						CHANNELS 3 Xrotation Yrotation Zrotation
						End Site
						{
							OFFSET 0.000000 0.000000 0.000000
						}
					}
				}
			}
		}
	}
	JOINT rhipjoint
	{
		OFFSET -1.536508 -1.714241 0.591231
		CHANNELS 3 Xrotation Yrotation Zrotation
		JOINT rfemur
		{
			OFFSET -2.457834 -6.752850 0.000000
			CHANNELS 3 Xrotation Yrotation Zrotation
			JOINT rtibia
			{
				OFFSET -2.519206 -6.921469 0.000000
				CHANNELS 3 Xrotation Yrotation Zrotation
				JOINT rfoot
				{
					OFFSET -0.217767 -0.598312 1.596756
					CHANNELS 3 Xrotation Yrotation Zrotation
					JOINT rtoes
					{
						OFFSET -0.000000 -0.000000 0.857792
						CHANNELS 3 Xrotation Yrotation Zrotation
						End Site
						{
							OFFSET 0.000000 0.000000 0.000000
						}
					}
				}
			}
		}
	}
	JOINT lowerback
	{
		OFFSET 0.022119 2.076219 0.037763
		CHANNELS 3 Xrotation Yrotation Zrotation
		JOINT upperback
		{
			OFFSET -0.009486 2.080087 -0.001229
			CHANNELS 3 Xrotation Yrotation Zrotation
			JOINT thorax
			{
				OFFSET -0.018881 2.073796 -0.019159
				CHANNELS 3 Xrotation Yrotation Zrotation
				JOINT lowerneck
				{
					OFFSET 0.002881 1.671840 0.111548
					CHANNELS 3 Xrotation Yrotation Zrotation
					JOINT upperneck
					{
						OFFSET -0.024118 1.669967 -0.220395
						CHANNELS 3 Xrotation Yrotation Zrotation
						JOINT head
						{
							OFFSET -0.010264 1.690430 -0.086834
							CHANNELS 3 Xrotation Yrotation Zrotation
							End Site
							{
								OFFSET 0.000000 0.000000 0.000000
							}
						}
					}
				}
				JOINT lclavicle
				{
					OFFSET 3.979415 0.740477 0.814616
					CHANNELS 3 Xrotation Yrotation Zrotation
					JOINT lhumerus
					{
						OFFSET 5.018340 -0.000000 -0.000000
						CHANNELS 3 Xrotation Yrotation Zrotation
						JOINT lradius
						{
							OFFSET 3.486900 -0.000000 0.000000
							CHANNELS 3 Xrotation Yrotation Zrotation
							JOINT lwrist
							{
								OFFSET 1.743450 -0.000000 0.000000
								CHANNELS 3 Xrotation Yrotation Zrotation
								JOINT lhand
								{
									OFFSET 0.767990 -0.000000 0.000000
									CHANNELS 3 Xrotation Yrotation Zrotation
									JOINT lfingers
									{
										OFFSET 0.619174 -0.000000 0.000000
										CHANNELS 3 Xrotation Yrotation Zrotation
										End Site
										{
											OFFSET 0.000000 0.000000 0.000000
										}
									}
								}
								JOINT lthumb
								{
									OFFSET 0.628627 -0.000000 0.628627
									CHANNELS 3 Xrotation Yrotation Zrotation
									End Site
									{
										OFFSET 0.000000 0.000000 0.000000
									}
								}
							}
						}
					}
				}
				JOINT rclavicle
				{
					OFFSET -3.887025 1.021226 0.440911
					CHANNELS 3 Xrotation Yrotation Zrotation
					JOINT rhumerus
					{
						OFFSET -4.701640 -0.000000 0.000000
						CHANNELS 3 Xrotation Yrotation Zrotation
						JOINT rradius
						{
							OFFSET -3.499110 -0.000000 0.000000
							CHANNELS 3 Xrotation Yrotation Zrotation
							JOINT rwrist
							{
								OFFSET -1.749550 -0.000000 0.000000
								CHANNELS 3 Xrotation Yrotation Zrotation
								JOINT rhand
								{
									OFFSET -0.739335 -0.000000 0.000000
									CHANNELS 3 Xrotation Yrotation Zrotation
									JOINT rfingers
									{
										OFFSET -0.596071 -0.000000 0.000000
										CHANNELS 3 Xrotation Yrotation Zrotation
										End Site
										{
											OFFSET 0.000000 0.000000 0.000000
										}
									}
								}
								JOINT rthumb
								{
									OFFSET -0.605173 -0.000000 0.605173
									CHANNELS 3 Xrotation Yrotation Zrotation
									End Site
									{
										OFFSET 0.000000 0.000000 0.000000
									}
								}
							}
						}
					}
				}
			}
		}
	}
}
MOTION
Frames: 7
Frame Time: 0.016667
13.653700 17.047100 -9.208460 4.208736 -14.357472 4.365105 0.000000 0.000000 0.000000 -9.691456 1.743016 -22.138559 28.107527 9.730245 -2.441224 -29.925536 5.926548 5.508227 -9.446708 -3.418701 -0.282555 0.000000 0.000000 0.000000 -47.104378 1.077770 17.740079 65.456280 -18.318858 11.832303 -9.112154 -11.872847 -1.491302 16.567061 -5.925032 0.863383 0.242550 -2.503288 -3.777269 -0.208035 -3.334335 -2.398702 -0.234200 -1.666623 -0.319486 -8.711286 -3.957820 -3.294925 39.167950 -5.690136 2.269092 15.048881 -3.508915 -0.308719 0.000000 -0.000000 0.000000 22.162057 -56.849424 -75.599865 45.639460 -58.927199 73.357926 -18.381700 0.000000 0.000000 0.000000 53.848500 8.944390 0.000000 0.000000 -7.125020 56.111212 75.578962 -67.455851 0.000000 -0.000000 0.000000 -23.736426 -2.873425 11.317372 43.835117 58.628738 -71.248062 -2.241750 0.000000 0.000000 0.000000 2.740530 2.486060 0.000000 0.000000 7.125020 20.716473 -20.365460 28.078530 
13.642200 17.021700 -9.181400 4.230393 -14.834005 4.514329 0.000000 0.000000 0.000000 -9.662966 2.041101 -22.220418 28.325897 9.798266 -2.478259 -30.069074 6.041967 5.602475 -8.593732 -3.113081 -0.233960 0.000000 0.000000 0.000000 -47.853728 0.072498 17.570504 67.338996 -18.565754 12.427949 -8.613854 -12.250427 -1.399354 16.122955 -5.771534 0.818130 0.305534 -2.816638 -4.108222 -0.325237 -3.749311 -2.350949 -0.354508 -1.873371 -0.072028 -8.940598 -3.537753 -3.693248 38.889605 -5.250687 1.712451 14.997400 -3.278342 -0.246288 0.000000 0.000000 0.000000 21.419178 -57.322796 -76.128592 46.021557 -58.985264 73.803897 -18.719100 0.000000 0.000000 0.000000 53.919800 9.365700 0.000000 0.000000 -7.125020 56.020594 75.904915 -67.103697 0.000000 0.000000 0.000000 -24.247287 -2.172619 11.050683 49.390706 59.422996 -77.725658 -5.836180 0.000000 0.000000 0.000000 1.206580 4.664520 0.000000 0.000000 7.125020 22.248380 -20.740005 30.490848 
13.624500 17.006400 -9.145560 4.097970 -15.383525 4.710360 0.000000 0.000000 0.000000 -9.184274 2.289383 -22.423460 28.127648 9.736520 -2.444626 -30.141535 6.258897 5.718839 -8.328939 -3.018026 -0.219799 0.000000 0.000000 0.000000 -48.198644 -0.842363 17.200064 69.149481 -18.784947 13.007720 -8.353835 -12.959882 -1.377127 17.361315 -6.198452 0.947257 0.604079 -2.941765 -4.236114 -0.490092 -3.906988 -2.607233 -0.683495 -1.948052 -0.231411 -9.080169 -3.389625 -3.758964 38.769349 -5.092414 1.556909 14.978482 -3.196178 -0.229343 0.000000 -0.000000 -0.000000 21.821036 -57.966749 -75.374774 46.782909 -59.095742 74.691734 -20.075100 0.000000 0.000000 0.000000 53.838300 9.712970 0.000000 0.000000 -7.125020 55.468449 76.093967 -66.321499 0.000000 -0.000000 -0.000000 -24.752053 -1.720517 11.086160 55.322120 59.889380 -84.596442 -9.627540 0.000000 0.000000 0.000000 -0.908804 6.609200 0.000000 0.000000 7.125020 23.711311 -21.673270 32.972314 
13.604300 16.997200 -9.105170 4.205273 -15.845547 5.002221 0.000000 0.000000 0.000000 -8.883077 2.142383 -22.803127 27.814412 9.638680 -2.391916 -30.278910 6.497742 5.865529 -7.370738 -2.673394 -0.172226 0.000000 0.000000 0.000000 -48.650003 -1.796873 16.538438 70.969224 -18.987158 13.596793 -8.363693 -13.823885 -1.422838 19.258244 -6.845429 1.162741 0.643871 -3.016683 -4.379072 -0.716105 -4.006437 -2.840827 -0.932103 -1.995320 -0.371452 -9.123381 -3.370620 -3.936028 38.584215 -5.048609 1.617870 14.906625 -3.198401 -0.159326 0.000000 -0.000000 0.000000 21.977189 -58.776917 -74.723349 47.193553 -59.152481 75.170183 -21.346900 0.000000 0.000000 0.000000 53.786700 9.745090 0.000000 0.000000 -7.125020 55.265668 76.085543 -66.092926 0.000000 -0.000000 0.000000 -25.414780 -0.843210 10.977787 61.039098 59.994559 -91.199868 -13.349000 0.000000 0.000000 0.000000 -3.307060 8.204910 0.000000 0.000000 7.125020 25.024719 -22.968364 35.339800 
13.577100 16.992200 -9.056130 4.429937 -16.376484 5.211530 0.000000 0.000000 0.000000 -8.611990 1.726020 -23.114528 27.382136 9.503102 -2.320042 -30.430121 6.972310 6.118766 -6.468807 -2.348139 -0.132714 0.000000 0.000000 0.000000 -49.016711 -2.842070 15.919844 72.652699 -19.157996 14.146931 -8.334594 -14.931630 -1.463893 20.042721 -7.110356 1.258045 0.434123 -3.051811 -4.426499 -0.924042 -4.061401 -2.955154 -1.027111 -2.023785 -0.460820 -9.088022 -3.377098 -4.211776 38.179848 -5.050979 1.611857 14.713030 -3.220082 -0.089937 0.000000 -0.000000 -0.000000 21.788811 -59.755612 -74.369309 47.223272 -59.156510 75.204798 -21.850100 0.000000 0.000000 0.000000 54.003400 9.964980 0.000000 0.000000 -7.125020 55.786074 76.352797 -66.493823 0.000000 -0.000000 -0.000000 -26.184594 0.769072 10.741483 66.138881 59.809030 -97.093118 -16.591600 0.000000 0.000000 0.000000 -5.648220 9.332690 0.000000 0.000000 7.125020 26.089450 -24.417438 37.356209 
13.546000 16.992200 -9.000060 4.563723 -17.022292 5.271204 0.000000 0.000000 0.000000 -8.097716 1.270410 -23.291982 26.758344 9.306332 -2.218109 -30.476709 7.660061 6.427158 -6.066313 -2.202749 -0.116734 0.000000 0.000000 0.000000 -48.999378 -4.030211 15.354337 74.043281 -19.287307 14.604786 -8.223429 -15.973721 -1.470865 20.480702 -7.257564 1.312818 0.233275 -3.031109 -4.222416 -1.084218 -4.040867 -3.084252 -1.096828 -2.014280 -0.709739 -9.024726 -3.480589 -4.288499 37.685169 -5.227218 1.506410 14.458768 -3.297144 -0.131512 0.000000 0.000000 0.000000 21.839956 -60.781191 -73.721466 47.232092 -59.157704 75.215071 -22.073400 0.000000 0.000000 0.000000 53.981600 9.892650 0.000000 0.000000 -7.125020 55.767118 76.290789 -66.518752 0.000000 0.000000 0.000000 -26.930434 2.976118 10.590789 70.407520 59.445101 -102.040006 -19.117900 0.000000 0.000000 0.000000 -7.791140 9.759850 0.000000 0.000000 7.125020 26.769305 -26.076263 38.757936 
13.507500 16.997300 -8.949150 4.829655 -17.481144 5.425064 0.000000 0.000000 0.000000 -7.758309 0.765128 -23.490862 26.144507 9.111427 -2.119873 -30.394273 8.217416 6.632294 -5.575492 -2.025268 -0.098628 0.000000 0.000000 0.000000 -48.983551 -5.355025 14.485625 75.239940 -19.390012 15.001074 -8.110751 -16.641080 -1.457894 23.468132 -8.247420 1.715909 0.039785 -3.041922 -3.978312 -1.356202 -4.059375 -3.321638 -1.289910 -2.023146 -1.083216 -8.997425 -3.703628 -4.275653 37.341691 -5.532901 1.585825 14.279765 -3.450234 -0.182628 0.000000 -0.000000 0.000000 22.509968 -61.825743 -72.477386 47.381315 -59.177766 75.388854 -22.232600 0.000000 0.000000 0.000000 53.638000 9.166370 0.000000 0.000000 -7.125020 55.262386 75.610901 -66.443560 0.000000 -0.000000 0.000000 -27.560134 5.596690 10.583999 73.886399 58.998988 -106.088712 -21.214200 0.000000 0.000000 0.000000 -9.795850 9.789590 0.000000 0.000000 7.125020 27.248239 -27.843961 39.803768 
